<svg width="24" height="24" viewBox="0 0 24 24" xmlns="http://www.w3.org/2000/svg">
  <path d="M12 5C14.96 5 17.45 7.04 18.14 9.79C18.24 10.19 18 10.59 17.6 10.69C17.2 10.79 16.8 10.55 16.7 10.15C16.17 8.04 14.25 6.5 12 6.5C9.33 6.5 7.14 8.56 7.01 11.19H9.25C9.66 11.19 10 11.53 10 11.94C10 12.35 9.66 12.69 9.25 12.69H5.99C5.58 12.69 5.24 12.35 5.24 11.94V8.69C5.24 8.28 5.58 7.94 5.99 7.94C6.4 7.94 6.74 8.28 6.74 8.69V9.61C7.65 6.89 9.59 5 12 5Z" fill="currentColor"/>
  <path d="M18.01 12.81H14.75C14.34 12.81 14 12.47 14 12.06C14 11.65 14.34 11.31 14.75 11.31H18.01C18.42 11.31 18.76 11.65 18.76 12.06V15.31C18.76 15.72 18.42 16.06 18.01 16.06C17.6 16.06 17.26 15.72 17.26 15.31V14.39C16.35 17.11 14.41 19 12 19C9.04 19 6.55 16.96 5.86 14.21C5.76 13.81 6 13.41 6.4 13.31C6.8 13.21 7.2 13.45 7.3 13.85C7.83 15.96 9.75 17.5 12 17.5C14.67 17.5 16.86 15.44 16.99 12.81H18.01Z" fill="currentColor"/>
</svg>
