<svg width="24" height="24" viewBox="0 0 24 24" xmlns="http://www.w3.org/2000/svg">
  <path d="M7 5.5C7 4.67 7.67 4 8.5 4C9.33 4 10 4.67 10 5.5C10 6.33 9.33 7 8.5 7C7.67 7 7 6.33 7 5.5Z" fill="currentColor"/>
  <path d="M14 18.5C14 17.67 14.67 17 15.5 17C16.33 17 17 17.67 17 18.5C17 19.33 16.33 20 15.5 20C14.67 20 14 19.33 14 18.5Z" fill="currentColor"/>
  <path d="M8.5 7.75C8.91 7.75 9.25 8.09 9.25 8.5V9.75C9.25 10.72 10.03 11.5 11 11.5H13C14.8 11.5 16.25 12.95 16.25 14.75V17.5H14.75V14.75C14.75 13.78 13.97 13 13 13H11C9.2 13 7.75 11.55 7.75 9.75V8.5C7.75 8.09 8.09 7.75 8.5 7.75Z" fill="currentColor"/>
</svg>
