<svg width="58" height="58" viewBox="0 0 58 58" fill="none" xmlns="http://www.w3.org/2000/svg">
<path d="M6.24611 34.7049C6.24611 30.3129 9.83908 26.7701 14.2305 26.8309L38.0635 27.1619C40.3638 27.1939 42.2461 25.3375 42.2461 23.0369V9.64825L35.9014 15.993C35.1691 16.7252 33.9813 16.7252 33.249 15.993C32.5168 15.2607 32.5168 14.0729 33.249 13.3406L42.7949 3.79474C43.5272 3.06251 44.715 3.06251 45.4473 3.79474L54.9932 13.3406C55.7254 14.0729 55.7254 15.2607 54.9932 15.993C54.2609 16.7252 53.0731 16.7252 52.3408 15.993L45.9961 9.64825V23.0369C45.9961 27.4289 42.4031 30.9718 38.0117 30.9109L14.1787 30.5799C11.8784 30.5479 9.99611 32.4043 9.99611 34.7049L9.99611 52.1209C9.99611 53.1564 9.15664 53.9959 8.12111 53.9959C7.08558 53.9959 6.24611 53.1564 6.24611 52.1209L6.24611 34.7049Z" fill="white" stroke="white" stroke-width="0.75"/>
<path d="M49.1211 46.1209C49.1211 49.4346 46.4348 52.1209 43.1211 52.1209C39.8074 52.1209 37.1211 49.4346 37.1211 46.1209C37.1211 42.8072 39.8074 40.1209 43.1211 40.1209C46.4348 40.1209 49.1211 42.8072 49.1211 46.1209Z" fill="white"/>
<path d="M5.29442 7.41549C4.70863 6.82971 4.70863 5.87996 5.29442 5.29417C5.8802 4.70839 6.82995 4.70839 7.41574 5.29417L15.8831 13.7615C16.4688 14.3473 16.4688 15.297 15.8831 15.8828C15.2973 16.4686 14.3475 16.4686 13.7617 15.8828L5.29442 7.41549Z" fill="white"/>
<path d="M13.7615 5.29422C14.3473 4.70843 15.2971 4.70843 15.8829 5.29422C16.4686 5.88 16.4686 6.82975 15.8829 7.41554L7.41554 15.8829C6.82975 16.4687 5.88 16.4687 5.29421 15.8829C4.70843 15.2971 4.70843 14.3473 5.29421 13.7615L13.7615 5.29422Z" fill="white"/>
</svg>
